<?xml version="1.0" encoding="UTF-8" standalone="no"?>
<svg
   xmlns:dc="http://purl.org/dc/elements/1.1/"
   xmlns:cc="http://creativecommons.org/ns#"
   xmlns:rdf="http://www.w3.org/1999/02/22-rdf-syntax-ns#"
   xmlns:svg="http://www.w3.org/2000/svg"
   xmlns="http://www.w3.org/2000/svg"
   xmlns:sodipodi="http://sodipodi.sourceforge.net/DTD/sodipodi-0.dtd"
   xmlns:inkscape="http://www.inkscape.org/namespaces/inkscape"
   width="282"
   height="282"
   viewBox="0 0 282 282"
   fill="none"
   version="1.1"
   id="svg38"
   sodipodi:docname="Lightning_Network.svg"
   inkscape:version="1.0.2-2 (e86c870879, 2021-01-15)">
  <metadata
     id="metadata42">
    <rdf:RDF>
      <cc:Work
         rdf:about="">
        <dc:format>image/svg+xml</dc:format>
        <dc:type
           rdf:resource="http://purl.org/dc/dcmitype/StillImage" />
        <dc:title></dc:title>
      </cc:Work>
    </rdf:RDF>
  </metadata>
  <sodipodi:namedview
     pagecolor="#ffffff"
     bordercolor="#666666"
     borderopacity="1"
     objecttolerance="10"
     gridtolerance="10"
     guidetolerance="10"
     inkscape:pageopacity="0"
     inkscape:pageshadow="2"
     inkscape:window-width="2048"
     inkscape:window-height="1089"
     id="namedview40"
     showgrid="false"
     inkscape:zoom="2.3118881"
     inkscape:cx="88.710575"
     inkscape:cy="165.5483"
     inkscape:window-x="-8"
     inkscape:window-y="-8"
     inkscape:window-maximized="1"
     inkscape:current-layer="svg38" />
  <g
     clip-path="url(#clip0)"
     id="g31">
    <circle
       cx="140.983"
       cy="141.003"
       r="141"
       fill="#7B1AF7"
       id="circle27" />
    <path
       d="M79.7609 144.047L173.761 63.0466C177.857 60.4235 181.761 63.0466 179.261 67.5466L149.261 126.547H202.761C202.761 126.547 211.261 126.547 202.761 133.547L110.261 215.047C103.761 220.547 99.261 217.547 103.761 209.047L132.761 151.547H79.7609C79.7609 151.547 71.2609 151.547 79.7609 144.047Z"
       fill="white"
       id="path29" />
  </g>
  <defs
     id="defs36">
    <clipPath
       id="clip0">
      <rect
         width="282"
         height="282"
         fill="white"
         id="rect33" />
    </clipPath>
  </defs>
  <path
     style="fill:#a0a0a0;stroke:none;stroke-width:0.432547"
     d="M 127.85607,281.18679 C 91.932932,277.84081 57.897453,260.23189 34.349493,232.80934 16.343015,211.84007 5.1563851,186.85796 1.3256401,159.0601 0.36886678,152.11726 0.02834291,136.93672 0.66585481,129.64691 3.7840276,93.991268 19.217362,62.249819 45.264143,37.922454 67.511668,17.143546 95.540239,4.3831898 126.55843,0.91221779 134.48871,0.02480992 150.5015,0.2452526 158.7763,1.3557503 c 26.45997,3.5509878 49.25493,13.2661197 70.51201,30.0519647 5.68515,4.489327 17.67506,16.5993 22.16972,22.391717 24.55262,31.641764 34.55576,69.680698 28.61803,108.825678 -7.31958,48.25495 -40.64683,90.38627 -86.04032,108.76963 -12.5418,5.07915 -27.26151,8.64278 -40.65941,9.84361 -5.83517,0.52299 -19.65143,0.49508 -25.52026,-0.0516 z m -19.32882,-64.63648 c 2.21093,-1.46313 95.3039,-83.48715 96.88173,-85.3623 1.42247,-1.69051 1.49971,-3.20801 0.20928,-4.11186 -0.8455,-0.59221 -4.25946,-0.67334 -28.33182,-0.67334 -15.05377,0 -27.37048,-0.13153 -27.37048,-0.29228 0,-0.16076 6.73379,-13.53263 14.96399,-29.715283 8.23019,-16.182647 15.06766,-30.061874 15.19438,-30.842716 0.3662,-2.256675 -0.77038,-3.602791 -3.02603,-3.58388 -1.00559,0.0084 -2.24343,0.251733 -2.75076,0.540683 -1.95303,1.112346 -96.785768,83.181116 -97.554244,84.423976 -0.446553,0.72221 -0.758964,1.89705 -0.694247,2.61075 0.208657,2.30108 0.545256,2.32779 29.675031,2.3546 14.59125,0.0134 26.46467,0.17336 26.38536,0.35539 -0.0793,0.18204 -6.47018,12.85499 -14.20195,28.1621 -7.73178,15.30711 -14.48975,28.83205 -15.01772,30.05543 -1.30617,3.0266 -1.31192,6.05046 -0.0133,6.98434 1.28249,0.92226 3.40195,0.58259 5.65077,-0.90561 z"
     id="path46" />
  <path
     style="fill:#8125f7;stroke:none;stroke-width:0.432547;fill-opacity:1"
     d="M 127.42352,280.95974 C 104.30754,278.57157 81.977671,270.48123 62.541488,257.45231 51.66267,250.15977 38.371077,237.85594 30.780163,228.05132 13.888214,206.23326 3.5242217,180.60719 1.1285721,154.73463 0.56441037,148.64178 0.56470978,132.10585 1.1290733,127.05163 4.2203589,99.367285 14.214299,74.889929 31.151296,53.52059 35.22789,48.377171 44.344085,38.967602 49.781355,34.290993 74.757464,12.808971 107.46558,0.53863946 139.75111,0.53916085 172.97967,0.53969721 203.087,10.948623 228.64166,31.271046 c 4.72991,3.761474 15.22468,14.015508 19.96182,19.503918 5.90377,6.840059 12.64639,17.035764 17.40429,26.317498 10.45762,20.400775 15.40103,40.916698 15.40208,63.921108 0.002,37.67068 -14.68661,72.82083 -41.65996,99.69504 -22.35847,22.27629 -50.09027,35.66494 -82.61093,39.88377 -4.69613,0.60922 -24.95067,0.85962 -29.71544,0.36736 z m -20.4859,-63.31238 c 1.65477,-0.62914 1.65479,-0.62916 35.40877,-30.27381 41.21225,-36.19493 62.13477,-54.78532 63.46663,-56.39236 0.41104,-0.49595 0.74869,-1.38835 0.75034,-1.9831 0.007,-2.47539 1.05357,-2.35262 -22.94565,-2.69124 -12.17094,-0.17172 -24.6337,-0.36636 -27.69502,-0.43254 l -5.56603,-0.12032 14.91879,-29.708383 c 15.40605,-30.678691 15.87427,-31.777373 14.23907,-33.412569 -1.05623,-1.056232 -4.54629,-0.895389 -6.07456,0.279953 -7.95375,6.11697 -96.764665,83.298979 -97.222559,84.492229 -0.493251,1.28539 -0.272894,3.10936 0.447967,3.70793 0.682252,0.56652 18.951432,1.02416 47.850102,1.19865 l 7.25681,0.0438 -14.81272,29.52132 c -13.82487,27.55258 -14.82387,29.69652 -14.98003,32.14833 -0.13,2.04103 -0.006,2.78876 0.55792,3.35224 0.82608,0.82607 2.64395,0.93756 4.40017,0.26985 z"
     id="path48" />
</svg>
