<?xml version="1.0" encoding="UTF-8" standalone="no"?>
<svg
   xmlns:dc="http://purl.org/dc/elements/1.1/"
   xmlns:cc="http://creativecommons.org/ns#"
   xmlns:rdf="http://www.w3.org/1999/02/22-rdf-syntax-ns#"
   xmlns:svg="http://www.w3.org/2000/svg"
   xmlns="http://www.w3.org/2000/svg"
   xmlns:sodipodi="http://sodipodi.sourceforge.net/DTD/sodipodi-0.dtd"
   xmlns:inkscape="http://www.inkscape.org/namespaces/inkscape"
   version="1.1"
   id="Logo_Complete"
   x="0px"
   y="0px"
   viewBox="-110 -110 640 640"
   style="enable-background:new -25 -25 470 470;"
   xml:space="preserve"
   sodipodi:docname="Logo2021.svg"
   inkscape:version="1.0.2-2 (e86c870879, 2021-01-15)"><metadata
   id="metadata50"><rdf:RDF><cc:Work
       rdf:about=""><dc:format>image/svg+xml</dc:format><dc:type
         rdf:resource="http://purl.org/dc/dcmitype/StillImage" /><dc:title></dc:title></cc:Work></rdf:RDF></metadata><defs
   id="defs48" /><sodipodi:namedview
   pagecolor="#ffffff"
   bordercolor="#666666"
   borderopacity="1"
   objecttolerance="10"
   gridtolerance="10"
   guidetolerance="10"
   inkscape:pageopacity="0"
   inkscape:pageshadow="2"
   inkscape:window-width="2048"
   inkscape:window-height="1089"
   id="namedview46"
   showgrid="false"
   inkscape:zoom="1.440625"
   inkscape:cx="143.34056"
   inkscape:cy="320"
   inkscape:window-x="-8"
   inkscape:window-y="-8"
   inkscape:window-maximized="1"
   inkscape:current-layer="Logo_Complete" />
 <style
   type="text/css"
   id="style31">
	 .st0{fill:none;stroke:#D9D9D9;stroke-width:40;stroke-miterlimit:10;}
	 .st1{fill:none;stroke:#D9D9D9;stroke-width:40;stroke-linecap:round;stroke-miterlimit:10;}
	 .st2{fill:none;}
	 .st3{fill:#D9D9D9;stroke:#D9D9D9;stroke-width:30;stroke-miterlimit:10;}
 </style>
 <g
   id="OX">
	 <circle
   id="circle"
   class="st0"
   cx="210"
   cy="210"
   r="140" />
	 <line
   id="right_top"
   class="st1"
   x1="310"
   y1="110"
   x2="420"
   y2="0" />
	 <line
   id="left_top"
   class="st1"
   x1="110"
   y1="110"
   x2="0"
   y2="0" />
	 <line
   id="left_bottom"
   class="st1"
   x1="110"
   y1="310"
   x2="0"
   y2="420" />
	 <line
   id="right_bottom"
   class="st1"
   x1="310"
   y1="310"
   x2="420"
   y2="420" />
	 <animateTransform
   repeatCount="1"
   attributeName="transform"
   type="rotate"
   from="0 210 210"
   to="90 210 210"
   begin="0"
   dur="1s"
   restart="always" />
 </g>
 <g
   id="D_complete">
	 <line
   id="help_line_1_"
   class="st2"
   x1="140"
   y1="125"
   x2="140"
   y2="295" />
	 <g
   class="flash_on_hover"
   id="g42">
		 <polyline
   id="D_path"
   class="st3"
   points="210,140 165,140 165,280 210,280" />
		 <path
   id="D_circle"
   class="st3"
   d="M210,140c40,0,70,30,70,70s-30,70-70,70" />
	 </g>
 </g>
<path
   style="fill:#808080;stroke-width:0.694143"
   d="m 102.0245,547.77777 c -7.209563,-3.35727 -11.425255,-9.92492 -11.425255,-17.79946 0,-8.91287 -1.899127,-6.70352 53.402485,-62.12582 l 49.86947,-49.9783 -3.09688,-4.16486 c -15.21813,-20.4662 -26.17941,-48.57839 -29.36604,-75.31454 -0.99513,-8.34925 -1.01701,-28.35873 -0.0399,-36.47915 2.39744,-19.92388 8.78226,-40.41442 17.83002,-57.22111 3.40954,-6.33342 13.08251,-21.23309 14.25518,-21.95784 0.39029,-0.2412 -21.79736,-22.96757 -49.30587,-50.50303 -55.469478,-55.52384 -53.548445,-53.29201 -53.548445,-62.21197 0,-10.992546 8.429899,-19.422445 19.422445,-19.422445 8.91179,0 6.7047,-1.896808 62.12582,53.392025 l 49.9783,49.85902 5.20608,-3.75658 c 29.2976,-21.14043 64.33783,-31.20323 102.03904,-29.30341 29.59546,1.49135 59.64868,12.06825 83.4095,29.35504 l 5.09376,3.70588 49.9783,-49.85948 c 55.42117,-55.289407 53.21398,-53.392495 62.12582,-53.392495 10.99255,0 19.42244,8.429899 19.42244,19.422445 0,8.91553 1.90483,6.70062 -53.42815,62.12582 l -49.89516,49.9783 3.67138,4.97616 c 13.71853,18.59402 23.66468,42.61768 27.80619,67.16233 2.44102,14.46671 2.44542,37.00037 0.01,51.419 -4.15718,24.6125 -14.08649,48.60553 -27.81623,67.21473 l -3.67138,4.97616 49.89516,49.9783 c 55.33298,55.42521 53.42816,53.21029 53.42816,62.12582 0,10.99255 -8.4299,19.42244 -19.42245,19.42244 -8.91683,0 -6.69919,1.90763 -62.12581,-53.44081 l -49.97831,-49.90781 -2.77657,2.13435 c -20.66956,15.88869 -48.94883,27.06814 -77.01326,30.44512 -8.12042,0.97713 -28.1299,0.95525 -36.47915,-0.0399 -26.89882,-3.20603 -53.70676,-13.65586 -74.96746,-29.2226 l -4.51193,-3.30357 -49.97831,49.9011 c -55.42587,55.34024 -53.20967,53.4341 -62.12581,53.4341 -3.2729,0 -5.46903,-0.44569 -7.99719,-1.62298 z M 331.55335,439.70831 c 28.18131,-2.84428 53.6287,-14.8628 73.46043,-34.69453 46.93002,-46.93003 46.9447,-123.14837 0.0328,-170.06032 -46.94144,-46.94144 -123.10079,-46.92676 -170.06032,0.0328 -46.73859,46.7386 -46.97395,122.70827 -0.52516,169.51032 25.63561,25.83056 61.42837,38.81127 97.09229,35.21177 z"
   id="path94"
   transform="translate(-110,-110)"
   inkscape:export-xdpi="96"
   inkscape:export-ydpi="96" /><path
   style="fill:#ffffff;stroke-width:0.694143"
   d="m 320.34707,320 v -84.33839 h 4.83439 c 5.58044,0 16.4166,1.96294 22.88039,4.14473 17.00815,5.74092 32.36157,17.40917 42.09619,31.9921 9.84488,14.74814 14.18035,29.4852 14.18035,48.20156 0,18.71636 -4.33547,33.45342 -14.18035,48.20156 -10.14439,15.1968 -27.43822,27.88715 -44.82181,32.8906 -5.92104,1.70423 -15.69118,3.24623 -20.56815,3.24623 h -4.42101 z"
   id="path96"
   transform="translate(-110,-110)" /><path
   style="fill:#ffffff;stroke-width:0.694143"
   d="m 260.65076,320 v -84.33839 h 29.50108 29.50109 V 320 404.33839 h -29.50109 -29.50108 z"
   id="path98"
   transform="translate(-110,-110)" /><path
   style="fill:#808080;stroke-width:0.694143"
   d="m 260.65076,320 v -84.33839 h 29.50108 29.50109 V 320 404.33839 h -29.50109 -29.50108 z"
   id="path100"
   transform="translate(-110,-110)" /><path
   style="fill:#808080;stroke-width:0.694143"
   d="m 320.34707,319.98698 v -84.46987 l 5.72668,0.47477 c 22.49171,1.86468 40.58018,10.29379 55.38838,25.81062 16.58642,17.38015 24.04277,39.74596 22.08775,66.25363 -2.16309,29.32875 -19.07709,54.2123 -46.07166,67.77975 -8.95415,4.50036 -19.08784,7.10779 -31.75154,8.16981 l -5.37961,0.45115 z"
   id="path102"
   transform="translate(-110,-110)" /><path
   style="fill:#808080;stroke-width:0.694143"
   d="m 260.65076,320 v -84.33839 h 29.50108 29.50109 V 320 404.33839 h -29.50109 -29.50108 z"
   id="path104"
   transform="translate(-110,-110)" /><path
   style="fill:#808080;stroke-width:0.694143"
   d="m 320.34707,319.96665 v -84.23964 l 3.64425,0.37791 c 19.9179,2.06545 33.74277,6.98901 46.42298,16.53294 16.661,12.54014 27.09129,29.05976 31.57481,50.00856 1.81793,8.49407 1.66334,27.01275 -0.30037,35.98416 -5.54009,25.31042 -21.21269,45.129 -45.15087,57.09491 -8.55805,4.27789 -17.73704,6.53381 -33.24069,8.16954 l -2.95011,0.31126 z"
   id="path106"
   transform="translate(-110,-110)" /><path
   style="fill:#808080;stroke-width:0.694143"
   d="m 320.34707,319.9841 v -84.22219 l 3.99132,0.35932 c 22.3724,2.01404 39.0058,9.14271 53.83785,23.07358 12.12183,11.38533 20.51228,26.71925 23.83145,43.55303 1.67092,8.47437 1.66279,26.06366 -0.016,34.60574 -5.02568,25.57205 -21.91059,47.09669 -46.05428,58.70937 -8.43103,4.05517 -17.52532,6.23736 -32.64027,7.83208 l -2.95011,0.31126 z"
   id="path108"
   transform="translate(-110,-110)" /><path
   style="fill:#808080;stroke-width:0.694143"
   d="m 320.34707,320.05836 v -84.29645 l 3.99132,0.35151 c 22.2438,1.95894 38.99529,9.14065 53.83785,23.08139 12.12183,11.38533 20.51228,26.71925 23.83145,43.55303 1.67092,8.47437 1.66279,26.06366 -0.016,34.60574 -6.83296,34.76799 -35.10731,61.05549 -70.53834,65.58156 -3.24512,0.41455 -7.07158,0.90356 -8.50325,1.08668 l -2.60304,0.33298 z"
   id="path110"
   transform="translate(-110,-110)" /><path
   style="fill:#808080;stroke-width:0.694143"
   d="m 320.34707,320.00214 v -84.35266 l 3.99132,0.4081 c 23.09656,2.36155 38.99071,9.19219 53.83785,23.13723 12.12577,11.38903 20.52682,26.74578 23.82609,43.55303 1.49011,7.59104 1.6693,25.33423 0.33195,32.87038 -6.32469,35.64039 -35.16031,63.03657 -70.88092,67.34265 -3.24512,0.39119 -7.07158,0.86486 -8.50325,1.0526 l -2.60304,0.34133 z"
   id="path112"
   transform="translate(-110,-110)" /><path
   style="fill:#808080;stroke-width:0.694143"
   d="m 320.34707,319.93898 v -84.3994 l 2.60304,0.37268 c 1.43167,0.20497 4.47722,0.56567 6.76789,0.80155 27.03049,2.78342 51.27533,19.10608 64.42396,43.37296 6.40205,11.81553 9.11596,24.00086 9.04403,40.60737 -0.0543,12.53094 -0.79595,17.51943 -4.084,27.46924 -8.30241,25.12345 -30.51044,45.93052 -56.21144,52.66542 -4.06122,1.06423 -19.63335,3.50959 -22.34922,3.50959 -0.10684,0 -0.19426,-37.97973 -0.19426,-84.39941 z"
   id="path114"
   transform="translate(-110,-110)" /><path
   style="fill:#808080;stroke-width:0.694143"
   d="m 319.98351,320 c 6e-5,-30.16052 0.0855,-42.39759 0.18984,-27.19349 0.10436,15.20411 0.10431,39.8809 -1e-4,54.83731 -0.10441,14.95642 -0.18979,2.5167 -0.18974,-27.64382 z"
   id="path116"
   transform="translate(-110,-110)" /><path
   style="fill:#808080;stroke-width:0.694143"
   d="m 260.65076,320 v -84.33839 h 29.50108 29.50109 V 320 404.33839 h -29.50109 -29.50108 z"
   id="path118"
   transform="translate(-110,-110)" /><path
   style="fill:#808080;stroke-width:0.694143"
   d="m 260.65076,320 v -84.33839 h 29.50108 29.50109 V 320 404.33839 h -29.50109 -29.50108 z"
   id="path120"
   transform="translate(-110,-110)" /><path
   style="fill:#808080;stroke-width:0.694143"
   d="m 260.65076,320 v -84.33839 h 29.50108 29.50109 V 320 404.33839 h -29.50109 -29.50108 z"
   id="path122"
   transform="translate(-110,-110)" /><path
   style="fill:#808080;stroke-width:0.694143"
   d="m 319.82798,344.98915 c 0.008,-1.52711 0.14985,-2.07011 0.31589,-1.20665 0.16603,0.86345 0.15973,2.11291 -0.014,2.77657 -0.17374,0.66366 -0.30958,-0.0428 -0.30188,-1.56992 z"
   id="path124"
   transform="translate(-110,-110)" /><path
   style="fill:#808080;stroke-width:0.694143"
   d=""
   id="path126"
   transform="translate(-110,-110)" /><path
   style="fill:#808080;stroke-width:0.694143"
   d="m 320.34707,320 c 0,-67.01518 0.17822,-84.33561 0.86768,-84.32484 0.47722,0.007 4.15439,0.45117 8.17149,0.98603 20.96176,2.79101 36.02174,9.99332 50.05595,23.93887 14.108,14.01887 21.69936,30.29532 23.60139,50.60313 2.51837,26.88851 -5.55382,50.17151 -23.63626,68.17515 -10.65645,10.61002 -23.49746,18.1637 -36.55474,21.50319 -3.99473,1.02168 -19.71188,3.45686 -22.31125,3.45686 -0.10684,0 -0.19426,-37.95227 -0.19426,-84.33839 z"
   id="path128"
   transform="translate(-110,-110)" /><path
   style="fill:#808080;stroke-width:0.694143"
   d="m 320.34707,320 c 0,-67.01518 0.17822,-84.33561 0.86768,-84.32484 3.05259,0.0477 16.38081,2.19074 21.01313,3.37874 19.65481,5.04064 37.0956,17.68582 48.30937,35.02597 14.83067,22.93308 17.18037,54.06121 6.09146,80.69798 -9.02246,21.6729 -32.10615,41.12704 -55.13813,46.46851 -3.72995,0.86504 -18.55156,3.09203 -20.57877,3.09203 -0.3106,0 -0.56474,-37.95227 -0.56474,-84.33839 z"
   id="path130"
   transform="translate(-110,-110)" /><path
   style="fill:#808080;stroke-width:0.694143"
   d="m 260.65076,320 v -84.33839 h 29.49661 29.49661 l 0.18255,51.19305 0.18256,51.19306 0.16899,-51.27304 0.16899,-51.27304 3.99132,0.46178 c 25.48761,2.94883 41.4827,10.27461 56.43165,25.84579 13.21631,13.76642 20.44025,29.82003 22.28585,49.52541 2.88548,30.80809 -8.82017,58.13637 -32.5209,75.92405 -13.29124,9.97523 -25.57267,14.42411 -46.18941,16.73186 l -3.98415,0.44597 -0.18804,-31.11196 -0.18805,-31.11196 -0.1662,31.06291 -0.16621,31.0629 h -29.50109 -29.50108 z"
   id="path132"
   transform="translate(-110,-110)" /><path
   style="fill:#808080;stroke-width:0.694143"
   d="m 260.65076,320 v -84.33839 h 29.49489 29.4949 l 0.18605,36.26898 0.18605,36.26898 0.16721,-36.34985 0.16721,-36.34985 4.68547,0.48429 c 23.87816,2.46802 41.08494,10.47778 55.96351,26.05099 13.07816,13.68876 20.32386,29.92894 22.09267,49.5175 2.78055,30.79297 -8.89789,57.95202 -32.55373,75.70602 -13.25675,9.94935 -25.44864,14.37773 -46.18908,16.77697 l -3.98381,0.46084 -0.1887,-29.75366 -0.1887,-29.75367 -0.16589,29.67462 -0.16588,29.67462 h -29.50109 -29.50108 z m 59.51682,2.97731 c -0.13594,-2.40108 -0.24828,-0.61722 -0.24965,3.96412 -0.001,4.58135 0.10984,6.54586 0.24715,4.3656 0.13731,-2.18027 0.13843,-5.92864 0.002,-8.32972 z"
   id="path134"
   transform="translate(-110,-110)" /></svg>
