<?xml version="1.0" encoding="UTF-8" standalone="no"?>
<!-- Created with Inkscape (http://www.inkscape.org/) -->

<svg xmlns="http://www.w3.org/2000/svg" height="0.9em" viewBox="0 0 80 60">
  <path d="m 40,30 c -4e-5,4.30773 -0.43081,8.23491 -1.29231,11.78156 -0.86158,3.54669 -2.16825,6.5908 -3.92001,9.13233 -1.75183,2.54155 -3.92722,4.50873 -6.52616,5.90155 -2.59901,1.39282 -5.6503,2.08923 -9.15387,2.08923 -3.01541,0 -5.75798,-0.56718 -8.22771,-1.70154 -2.46976,-1.13436 -4.58053,-2.87897 -6.33232,-5.23385 -1.7518,-2.35487 -3.10155,-5.3559 -4.04924,-9.0031 -0.94769,-3.64717 -1.42154,-7.96922 -1.42154,-12.96618 0,-4.30767 0.43795,-8.24203 1.31385,-11.8031 0.87589,-3.56099 2.18256,-6.61227 3.92001,-9.15386 1.73743,-2.5415 3.91281,-4.50868 6.52617,-5.90156 2.61332,-1.39276 5.65742,-2.08917 9.13232,-2.08923 3.01537,6e-5 5.75793,0.56724 8.22771,1.70154 2.46971,1.13442 4.58049,2.88621 6.33232,5.2554 1.75176,2.36928 3.1015,5.37749 4.04924,9.02463 0.94765,3.64722 1.4215,7.96928 1.42154,12.96618 z m -7.58155,0.25846 c -4e-5,-0.97638 -0.0359,-1.94561 -0.10769,-2.9077 -0.0718,-0.96202 -0.15081,-1.90253 -0.23693,-2.82154 l -23.82158,17.70465 c 0.43075,1.49335 0.97639,2.87182 1.63692,4.13539 0.6605,1.26361 1.45742,2.34771 2.39078,3.25232 0.93331,0.90462 1.99588,1.60821 3.1877,2.11077 1.19177,0.50257 2.5487,0.75386 4.07077,0.75385 1.9528,10e-6 3.72614,-0.47384 5.32001,-1.42154 1.59382,-0.94769 2.95075,-2.35487 4.07078,-4.22155 1.11997,-1.86666 1.98151,-4.18563 2.58462,-6.95694 0.60304,-2.77126 0.90458,-5.9805 0.90462,-9.62771 z m -25.76005,-0.51692 c -2e-5,0.89028 0.007,1.78054 0.0215,2.67077 0.0144,0.89029 0.0646,1.75183 0.15077,2.58462 l 23.82159,-17.61849 c -0.4308,-1.46458 -0.97645,-2.79997 -1.63693,-4.00617 -0.66054,-1.20611 -1.45029,-2.24713 -2.36923,-3.12308 -0.91901,-0.87585 -1.96721,-1.5579 -3.14462,-2.04616 -1.17747,-0.48815 -2.49849,-0.73226 -3.96309,-0.73231 -1.95284,5e-5 -3.72618,0.4739 -5.32001,1.42155 -1.59387,0.94774 -2.95079,2.3621 -4.07078,4.24308 -1.12001,1.88107 -1.98155,4.20723 -2.58462,6.97848 -0.60309,2.77132 -0.90463,5.98055 -0.90461,9.62771 z"
  />
</svg>
